<svg xmlns="http://www.w3.org/2000/svg" width="990" height="330" data-v-05e1d29d="" viewBox="0 0 990 330" role="img" aria-label="Roadmap of five integration levels, each a possible stopping point"><style>svg { font-family: Roboto, "Helvetica Neue", Arial, sans-serif; } 
.skip[data-v-05e1d29d] { font-size: 12px; fill: #1c5cab;
}
.num[data-v-05e1d29d] { font-size: 18px; font-weight: 700;
}
.ttl[data-v-05e1d29d] { font-size: 15px; font-weight: 700; fill: #2b2b2b;
}
.body[data-v-05e1d29d] { font-size: 13px; fill: #3f3f3f;
}
.stop[data-v-05e1d29d] { font-size: 12px; font-weight: 700; fill: #cf3f02;
}
.sb[data-v-05e1d29d] { font-size: 12px; fill: #3f3f3f;
}
.eff[data-v-05e1d29d] { font-size: 11px; fill: #666;
}
</style><defs data-v-05e1d29d=""><linearGradient data-v-05e1d29d="" id="track" x1="0" x2="1" y1="0" y2="0"><stop data-v-05e1d29d="" offset="0" stop-color="#86b6ef"></stop><stop data-v-05e1d29d="" offset="0.25" stop-color="#5598e7"></stop><stop data-v-05e1d29d="" offset="0.5" stop-color="#2a78d6"></stop><stop data-v-05e1d29d="" offset="0.75" stop-color="#1c5cab"></stop><stop data-v-05e1d29d="" offset="1" stop-color="#104281"></stop></linearGradient></defs><path data-v-05e1d29d="" d="M295,36 C295,16 691,16 691,36" fill="none" stroke="#1c5cab" stroke-width="2" stroke-dasharray="6 4"></path><text data-v-05e1d29d="" x="493" y="11" text-anchor="middle" class="skip">level 3 can come without level 2</text><rect data-v-05e1d29d="" x="97" y="46" width="792" height="5" rx="2.5" fill="url(#track)"></rect><g data-v-05e1d29d=""><circle data-v-05e1d29d="" cx="97" cy="48" r="20" fill="#86b6ef" stroke="#fff" stroke-width="3"></circle><circle data-v-05e1d29d="" cx="97" cy="48" r="22" fill="none" stroke="#86b6ef" stroke-width="2"></circle><text data-v-05e1d29d="" x="97" y="55" text-anchor="middle" class="num" fill="#0d1f33">0</text><rect data-v-05e1d29d="" x="4" y="84" width="186" height="110" rx="8" fill="#86b6ef" fill-opacity="0.12" stroke="#86b6ef" stroke-width="1" stroke-dasharray="none"></rect><text data-v-05e1d29d="" x="16" y="110" class="ttl">Today</text><text data-v-05e1d29d="" x="16" y="136" class="body">Events, hazards,</text><text data-v-05e1d29d="" x="16" y="154" class="body">impacts, responses</text><rect data-v-05e1d29d="" x="4" y="206" width="186" height="68" rx="6" fill="#fff3ec"></rect><rect data-v-05e1d29d="" x="4" y="206" width="4" height="68" fill="#cf3f02"></rect><text data-v-05e1d29d="" x="16" y="226" class="stop">Stop here:</text><text data-v-05e1d29d="" x="16" y="244" class="sb">No change. Exposure</text><text data-v-05e1d29d="" x="16" y="260" class="sb">stays mixed with impact</text><text data-v-05e1d29d="" x="97" y="296" text-anchor="middle" class="eff">effort: none</text></g><g data-v-05e1d29d=""><circle data-v-05e1d29d="" cx="295" cy="48" r="20" fill="#5598e7" stroke="#fff" stroke-width="3"></circle><circle data-v-05e1d29d="" cx="295" cy="48" r="22" fill="none" stroke="#5598e7" stroke-width="2"></circle><text data-v-05e1d29d="" x="295" y="55" text-anchor="middle" class="num" fill="#0d1f33">1</text><rect data-v-05e1d29d="" x="202" y="84" width="186" height="110" rx="8" fill="#5598e7" fill-opacity="0.12" stroke="#5598e7" stroke-width="1" stroke-dasharray="none"></rect><text data-v-05e1d29d="" x="214" y="110" class="ttl">Event-linked exposure</text><text data-v-05e1d29d="" x="214" y="136" class="body">Exposure separate</text><text data-v-05e1d29d="" x="214" y="154" class="body">from impact</text><rect data-v-05e1d29d="" x="202" y="206" width="186" height="68" rx="6" fill="#fff3ec"></rect><rect data-v-05e1d29d="" x="202" y="206" width="4" height="68" fill="#cf3f02"></rect><text data-v-05e1d29d="" x="214" y="226" class="stop">Stop here:</text><text data-v-05e1d29d="" x="214" y="244" class="sb">Credible figures;</text><text data-v-05e1d29d="" x="214" y="260" class="sb">exposure for every event</text><text data-v-05e1d29d="" x="295" y="296" text-anchor="middle" class="eff">effort: low</text></g><g data-v-05e1d29d=""><circle data-v-05e1d29d="" cx="493" cy="48" r="20" fill="#2a78d6" stroke="#fff" stroke-width="3"></circle><circle data-v-05e1d29d="" cx="493" cy="48" r="22" fill="none" stroke="#2a78d6" stroke-width="2"></circle><text data-v-05e1d29d="" x="493" y="55" text-anchor="middle" class="num" fill="#fff">2</text><rect data-v-05e1d29d="" x="400" y="84" width="186" height="110" rx="8" fill="#2a78d6" fill-opacity="0.12" stroke="#2a78d6" stroke-width="2" stroke-dasharray="6 4"></rect><text data-v-05e1d29d="" x="412" y="110" class="ttl">Pre-event occurrences</text><text data-v-05e1d29d="" x="412" y="136" class="body">Forecast hazards and</text><text data-v-05e1d29d="" x="412" y="154" class="body">exposure before an event</text><rect data-v-05e1d29d="" x="400" y="206" width="186" height="68" rx="6" fill="#fff3ec"></rect><rect data-v-05e1d29d="" x="400" y="206" width="4" height="68" fill="#cf3f02"></rect><text data-v-05e1d29d="" x="412" y="226" class="stop">Stop here:</text><text data-v-05e1d29d="" x="412" y="244" class="sb">Anticipatory action</text><text data-v-05e1d29d="" x="493" y="296" text-anchor="middle" class="eff">effort: medium</text></g><g data-v-05e1d29d=""><circle data-v-05e1d29d="" cx="691" cy="48" r="20" fill="#1c5cab" stroke="#fff" stroke-width="3"></circle><circle data-v-05e1d29d="" cx="691" cy="48" r="22" fill="none" stroke="#1c5cab" stroke-width="2"></circle><text data-v-05e1d29d="" x="691" y="55" text-anchor="middle" class="num" fill="#fff">3</text><rect data-v-05e1d29d="" x="598" y="84" width="186" height="110" rx="8" fill="#1c5cab" fill-opacity="0.12" stroke="#1c5cab" stroke-width="1" stroke-dasharray="none"></rect><text data-v-05e1d29d="" x="610" y="110" class="ttl">Analytical results</text><text data-v-05e1d29d="" x="610" y="136" class="body">People-in-need estimates,</text><text data-v-05e1d29d="" x="610" y="154" class="body">linked to their inputs</text><rect data-v-05e1d29d="" x="598" y="206" width="186" height="68" rx="6" fill="#fff3ec"></rect><rect data-v-05e1d29d="" x="598" y="206" width="4" height="68" fill="#cf3f02"></rect><text data-v-05e1d29d="" x="610" y="226" class="stop">Stop here:</text><text data-v-05e1d29d="" x="610" y="244" class="sb">North-star figure</text><text data-v-05e1d29d="" x="610" y="260" class="sb">in the catalogue</text><text data-v-05e1d29d="" x="691" y="296" text-anchor="middle" class="eff">effort: medium</text></g><g data-v-05e1d29d=""><circle data-v-05e1d29d="" cx="889" cy="48" r="20" fill="#104281" stroke="#fff" stroke-width="3"></circle><circle data-v-05e1d29d="" cx="889" cy="48" r="22" fill="none" stroke="#104281" stroke-width="2"></circle><text data-v-05e1d29d="" x="889" y="55" text-anchor="middle" class="num" fill="#fff">4</text><rect data-v-05e1d29d="" x="796" y="84" width="186" height="110" rx="8" fill="#104281" fill-opacity="0.12" stroke="#104281" stroke-width="1" stroke-dasharray="none"></rect><text data-v-05e1d29d="" x="808" y="110" class="ttl">Context catalogue</text><text data-v-05e1d29d="" x="808" y="136" class="body">Population, vulnerability,</text><text data-v-05e1d29d="" x="808" y="154" class="body">coping, baseline hazards</text><rect data-v-05e1d29d="" x="796" y="206" width="186" height="68" rx="6" fill="#fff3ec"></rect><rect data-v-05e1d29d="" x="796" y="206" width="4" height="68" fill="#cf3f02"></rect><text data-v-05e1d29d="" x="808" y="226" class="stop">Stop here:</text><text data-v-05e1d29d="" x="808" y="244" class="sb">All inputs in one place;</text><text data-v-05e1d29d="" x="808" y="260" class="sb">preparedness</text><text data-v-05e1d29d="" x="889" y="296" text-anchor="middle" class="eff">effort: high · scope change</text></g></svg>
